<svg width="32" height="32" viewBox="0 0 32 32" fill="none" xmlns="http://www.w3.org/2000/svg">
<path d="M15.958 0.445616C16.2831 0.445616 16.5963 0.566053 16.8251 0.806926L22.0882 6.07C22.317 6.29883 22.4495 6.59992 22.4495 6.93714C22.4495 7.26232 22.329 7.57545 22.1002 7.80428L16.8371 13.0674C16.6083 13.2962 16.2952 13.4287 15.97 13.4287C15.6448 13.4287 15.3317 13.3082 15.1029 13.0794L9.83979 7.81633C9.37009 7.34663 9.37009 6.56379 9.83979 6.09408L15.1029 0.831015C15.3196 0.578098 15.6328 0.445616 15.958 0.445616ZM15.958 0C15.5364 0 15.1029 0.156567 14.7777 0.481746L9.51462 5.74482C8.86427 6.39518 8.86427 7.45502 9.51462 8.10537L14.7777 13.3684C15.1029 13.6936 15.5244 13.8502 15.958 13.8502C16.3915 13.8502 16.813 13.6936 17.1382 13.3684L22.4013 8.10537C23.0517 7.45502 23.0517 6.39518 22.4013 5.74482L17.1382 0.481746C16.813 0.168611 16.3915 0 15.958 0Z" fill="white"/>
<path d="M7.61158 9.17731H6.09407L0 15.2714V16.8009L6.09407 22.895H7.61158L13.7177 16.8009V15.2714L7.61158 9.17731Z" fill="white"/>
<path d="M16.7286 18.2823H15.1991L9.10498 24.3763V25.9059L15.1991 32H16.7286L22.8227 25.9059V24.3763L16.7286 18.2823Z" fill="white"/>
<path d="M25.8215 9.17731H24.304L18.21 15.2714V16.8009L24.304 22.895H25.8215L31.9276 16.8009V15.2714L25.8215 9.17731Z" fill="white"/>
<path d="M7.61158 9.17731H6.09407L0 15.2714V16.8009L6.09407 22.895H7.61158L13.7177 16.8009V15.2714L7.61158 9.17731Z" fill="white"/>
<path d="M16.7286 18.2823H15.1991L9.10498 24.3764V25.9059L15.1991 32H16.7286L22.8227 25.9059V24.3764L16.7286 18.2823Z" fill="white"/>
<path d="M25.8215 9.17731H24.304L18.21 15.2714V16.8009L24.304 22.895H25.8215L31.9276 16.8009V15.2714L25.8215 9.17731Z" fill="white"/>
</svg>
