<svg width="183" height="32" viewBox="0 0 183 32" fill="none" xmlns="http://www.w3.org/2000/svg">
<path d="M15.958 0.445616C16.2831 0.445616 16.5963 0.566053 16.8251 0.806926L22.0882 6.07C22.317 6.29883 22.4495 6.59992 22.4495 6.93714C22.4495 7.26232 22.329 7.57545 22.1002 7.80428L16.8371 13.0674C16.6083 13.2962 16.2952 13.4287 15.97 13.4287C15.6448 13.4287 15.3317 13.3082 15.1029 13.0794L9.83979 7.81633C9.37009 7.34663 9.37009 6.56379 9.83979 6.09408L15.1029 0.831015C15.3196 0.578098 15.6328 0.445616 15.958 0.445616ZM15.958 0C15.5364 0 15.1029 0.156567 14.7777 0.481746L9.51462 5.74482C8.86427 6.39518 8.86427 7.45502 9.51462 8.10537L14.7777 13.3684C15.1029 13.6936 15.5244 13.8502 15.958 13.8502C16.3915 13.8502 16.813 13.6936 17.1382 13.3684L22.4013 8.10537C23.0517 7.45502 23.0517 6.39518 22.4013 5.74482L17.1382 0.481746C16.813 0.168611 16.3915 0 15.958 0Z" fill="white"/>
<path d="M7.61158 9.17731H6.09407L0 15.2714V16.8009L6.09407 22.895H7.61158L13.7177 16.8009V15.2714L7.61158 9.17731Z" fill="white"/>
<path d="M16.7286 18.2823H15.1991L9.10498 24.3763V25.9059L15.1991 32H16.7286L22.8227 25.9059V24.3763L16.7286 18.2823Z" fill="white"/>
<path d="M25.8215 9.17731H24.304L18.21 15.2714V16.8009L24.304 22.895H25.8215L31.9276 16.8009V15.2714L25.8215 9.17731Z" fill="white"/>
<path d="M7.61158 9.17731H6.09407L0 15.2714V16.8009L6.09407 22.895H7.61158L13.7177 16.8009V15.2714L7.61158 9.17731Z" fill="white"/>
<path d="M16.7286 18.2823H15.1991L9.10498 24.3764V25.9059L15.1991 32H16.7286L22.8227 25.9059V24.3764L16.7286 18.2823Z" fill="white"/>
<path d="M25.8215 9.17731H24.304L18.21 15.2714V16.8009L24.304 22.895H25.8215L31.9276 16.8009V15.2714L25.8215 9.17731Z" fill="white"/>
<path d="M42.3835 4.1611C45.9243 4.1611 47.7309 6.28078 47.7309 9.97818V10.7008H44.2984V9.74935C44.2984 8.09937 43.636 7.46106 42.4798 7.46106C41.3236 7.46106 40.6613 8.08733 40.6613 9.74935C40.6613 14.5066 47.767 15.3978 47.767 22.0098C47.767 25.7072 45.9123 27.8269 42.3474 27.8269C38.7825 27.8269 36.9277 25.7192 36.9277 22.0098V20.5886H40.3602V22.2386C40.3602 23.8886 41.0828 24.4787 42.239 24.4787C43.3951 24.4787 44.1178 23.8886 44.1178 22.2386C44.1178 17.4814 37.012 16.5901 37.012 9.97818C37.0241 6.28078 38.8427 4.1611 42.3835 4.1611Z" fill="white"/>
<path d="M54.6084 9.97818C54.6084 6.28078 56.5594 4.1611 60.1244 4.1611C63.6893 4.1611 65.6403 6.28078 65.6403 9.97818V22.0098C65.6403 25.7072 63.6893 27.8269 60.1244 27.8269C56.5594 27.8269 54.6084 25.7192 54.6084 22.0098V9.97818ZM58.2335 22.2386C58.2335 23.8886 58.9561 24.5149 60.1123 24.5149C61.2685 24.5149 62.0032 23.8886 62.0032 22.2386V9.74935C62.0032 8.09937 61.2806 7.46106 60.1123 7.46106C58.9561 7.46106 58.2335 8.08733 58.2335 9.74935V22.2386Z" fill="white"/>
<path d="M71.5293 4.16107H75.1665V24.4426H81.1521V27.8148H71.5413V4.16107H71.5293Z" fill="white"/>
<path d="M98.7596 27.8269H95.0863L94.46 23.5273H90.0038L89.3776 27.8269H86.0415L89.7389 4.17316H95.0622L98.7596 27.8269ZM90.4735 20.3237H93.9782L92.2319 8.36435L90.4735 20.3237Z" fill="white"/>
<path d="M112.129 27.8269C111.936 27.2127 111.803 26.8514 111.803 24.9244V21.2029C111.803 19.011 111.081 18.192 109.431 18.192H108.178V27.8269H104.541V4.17319H110.033C113.803 4.17319 115.416 5.96769 115.416 9.61692V11.4716C115.416 13.9045 114.658 15.4942 113.032 16.265C114.85 17.0479 115.441 18.8303 115.441 21.2993V24.9485C115.441 26.0926 115.477 26.9477 115.838 27.8149H112.129V27.8269ZM108.154 7.54541V14.8077H109.575C110.936 14.8077 111.755 14.1935 111.755 12.3027V9.96618C111.755 8.28007 111.189 7.53337 109.9 7.53337H108.154V7.54541Z" fill="white"/>
<path d="M126.858 23.4671L129.628 4.17319H132.964L129.399 27.8269H123.979L120.426 4.17319H124.1L126.858 23.4671Z" fill="white"/>
<path d="M138.95 9.97818C138.95 6.28078 140.901 4.1611 144.466 4.1611C148.031 4.1611 149.982 6.28078 149.982 9.97818V22.0098C149.982 25.7072 148.031 27.8269 144.466 27.8269C140.901 27.8269 138.95 25.7192 138.95 22.0098V9.97818ZM142.587 22.2386C142.587 23.8886 143.31 24.5149 144.478 24.5149C145.634 24.5149 146.357 23.8886 146.357 22.2386V9.74935C146.357 8.09937 145.634 7.46106 144.478 7.46106C143.322 7.46106 142.587 8.08733 142.587 9.74935V22.2386Z" fill="white"/>
<path d="M157.437 4.17316H161.074V24.4547H167.059V27.8389H157.449V4.17316H157.437Z" fill="white"/>
<path d="M170.829 4.17319H182.066V7.54541H178.26V27.8269H174.623V7.54541H170.817V4.17319H170.829Z" fill="white"/>
</svg>
