<svg width="64" height="60" viewBox="0 0 64 60" fill="none" xmlns="http://www.w3.org/2000/svg">
<path d="M25.4204 15.1351C26.1086 10.8949 23.2291 6.89967 18.9889 6.21151C14.7487 5.52336 10.7535 8.40285 10.0653 12.643C9.3772 16.8832 12.2567 20.8784 16.4969 21.5666C20.737 22.2547 24.7323 19.3752 25.4204 15.1351Z" stroke="#9AA4AC" stroke-width="3" stroke-miterlimit="10" stroke-linecap="round" stroke-linejoin="round"/>
<path d="M29.9811 29.2834C28.1184 26.8948 25.2179 25.3926 22.0164 25.3926H13.4685C8.58204 25.3926 4.39701 28.8922 3.53228 33.7017L1.88135 42.8842H10.4561" stroke="#9AA4AC" stroke-width="3" stroke-miterlimit="10" stroke-linecap="round" stroke-linejoin="round"/>
<path d="M18.3513 42.9028H10.4561V58.3951H18.3513V42.9028Z" stroke="#9AA4AC" stroke-width="3" stroke-miterlimit="10" stroke-linecap="round" stroke-linejoin="round"/>
<path d="M18.3516 58.404H34.9159C37.5769 58.404 39.9996 56.8708 41.1388 54.466L44.5434 47.2794C46.1055 43.9822 43.7064 40.1807 40.058 40.1717L33.6068 40.1521L34.8055 34.9866C34.9521 34.355 34.9616 33.7242 34.8538 33.1249C34.4639 30.9581 32.5162 29.2827 30.3147 29.2827H29.9814L27.0839 35.1711C26.2642 36.9016 24.9977 38.3819 23.4151 39.4596L18.3517 42.9073" stroke="#9AA4AC" stroke-width="3" stroke-miterlimit="10" stroke-linecap="round" stroke-linejoin="round"/>
<path d="M40.5541 13.8714L35.7436 16.4005L36.6623 11.0437L32.7705 7.25009L38.1488 6.46864L40.5541 1.59497L42.9594 6.46864L48.3379 7.25009L44.4461 11.0437L45.3647 16.4005L40.5541 13.8714Z" stroke="#F2CC37" stroke-width="3" stroke-miterlimit="10" stroke-linecap="round" stroke-linejoin="round"/>
<path d="M52.7265 31.6443L46.9216 34.6961L48.0302 28.2324L43.334 23.6547L49.8241 22.7116L52.7265 16.8306L55.6288 22.7116L62.119 23.6547L57.4228 28.2324L58.5313 34.6961L52.7265 31.6443Z" stroke="#F2CC37" stroke-width="3" stroke-miterlimit="10" stroke-linecap="round" stroke-linejoin="round"/>
</svg>
