<svg width="64" height="64" viewBox="0 0 64 64" fill="none" xmlns="http://www.w3.org/2000/svg">
<path d="M25.4204 17.1351C26.1086 12.8949 23.2291 8.89967 18.9889 8.21151C14.7487 7.52336 10.7535 10.4028 10.0653 14.643C9.3772 18.8832 12.2567 22.8784 16.4969 23.5666C20.737 24.2547 24.7323 21.3752 25.4204 17.1351Z" stroke="#9AA4AC" stroke-width="3" stroke-miterlimit="10" stroke-linecap="round" stroke-linejoin="round"/>
<path d="M29.9811 31.2834C28.1184 28.8948 25.2179 27.3926 22.0164 27.3926H13.4685C8.58204 27.3926 4.39701 30.8922 3.53228 35.7017L1.88135 44.8842H10.4561" stroke="#9AA4AC" stroke-width="3" stroke-miterlimit="10" stroke-linecap="round" stroke-linejoin="round"/>
<path d="M18.3513 44.9028H10.4561V60.3951H18.3513V44.9028Z" stroke="#9AA4AC" stroke-width="3" stroke-miterlimit="10" stroke-linecap="round" stroke-linejoin="round"/>
<path d="M18.3516 60.404H34.9159C37.5769 60.404 39.9996 58.8708 41.1388 56.466L44.5434 49.2794C46.1055 45.9822 43.7064 42.1807 40.058 42.1717L33.6068 42.1521L34.8055 36.9866C34.9521 36.355 34.9616 35.7242 34.8538 35.1249C34.4639 32.9581 32.5162 31.2827 30.3147 31.2827H29.9814L27.0839 37.1711C26.2642 38.9016 24.9977 40.3819 23.4151 41.4596L18.3517 44.9073" stroke="#9AA4AC" stroke-width="3" stroke-miterlimit="10" stroke-linecap="round" stroke-linejoin="round"/>
<path d="M40.5541 15.8714L35.7436 18.4005L36.6623 13.0437L32.7705 9.25009L38.1488 8.46864L40.5541 3.59497L42.9594 8.46864L48.3379 9.25009L44.4461 13.0437L45.3647 18.4005L40.5541 15.8714Z" stroke="#F2CC37" stroke-width="3" stroke-miterlimit="10" stroke-linecap="round" stroke-linejoin="round"/>
<path d="M52.7265 33.6443L46.9216 36.6961L48.0302 30.2324L43.334 25.6547L49.8241 24.7116L52.7265 18.8306L55.6288 24.7116L62.119 25.6547L57.4228 30.2324L58.5313 36.6961L52.7265 33.6443Z" stroke="#F2CC37" stroke-width="3" stroke-miterlimit="10" stroke-linecap="round" stroke-linejoin="round"/>
</svg>
