<svg width="64" height="64" viewBox="0 0 64 64" fill="none" xmlns="http://www.w3.org/2000/svg">
<path d="M42.6233 21.2597C42.6233 15.393 37.8675 10.6373 32.0009 10.6373M42.6233 21.2597C42.6233 22.5032 42.3986 23.6915 42.006 24.8005H21.9958C21.6032 23.6915 21.3785 22.5032 21.3785 21.2597M42.6233 21.2597H49.7049M32.0009 10.6373C26.1342 10.6373 21.3785 15.393 21.3785 21.2597M32.0009 10.6373V3.55566M21.3785 21.2597H14.2969M39.512 13.7486L44.5195 8.74118M24.4894 13.7486L19.4819 8.74118" stroke="#F2CC37" stroke-width="3" stroke-miterlimit="10" stroke-linecap="round" stroke-linejoin="round"/>
<path d="M17.7779 50.7666L20.1384 31.8823M32.0001 50.7666V31.8823M46.2223 50.7666L43.8618 31.8823M43.8028 60.4448H20.1974M5.9162 41.3245H58.084M8.27673 31.8823H55.7235L60.4445 50.7666H3.55566L8.27673 31.8823ZM27.279 50.7666H36.7212L39.0817 60.4448H24.9185L27.279 50.7666Z" stroke="white" stroke-width="3" stroke-miterlimit="10" stroke-linecap="round" stroke-linejoin="round"/>
</svg>
