<svg width="64" height="64" viewBox="0 0 64 64" fill="none" xmlns="http://www.w3.org/2000/svg">

<g clip-path="url(#clip0_7534_4985)">
<path d="M41.1358 31.275C43.3288 31.275 45.1065 29.4972 45.1065 27.3042C45.1065 25.1113 43.3288 23.3335 41.1358 23.3335C38.9428 23.3335 37.165 25.1113 37.165 27.3042C37.165 29.4972 38.9428 31.275 41.1358 31.275Z" stroke="#F2CC37" stroke-width="3" stroke-miterlimit="10" stroke-linecap="round" stroke-linejoin="round"/>
<path d="M34.439 20.6075C30.9257 24.1207 30.7247 29.7517 33.9785 33.5065L41.1358 41.7661L48.2932 33.5065C51.547 29.7516 51.346 24.1207 47.8327 20.6075C44.1341 16.9088 38.1376 16.9088 34.439 20.6075Z" stroke="#F2CC37" stroke-width="3" stroke-miterlimit="10" stroke-linecap="round" stroke-linejoin="round"/>
<path d="M8.00728 15.4662V9.62766C8.00728 8.30316 9.08103 7.22941 10.4055 7.22941H11.3573C11.7133 7.22941 12.0648 7.30866 12.3863 7.46141C13.2032 7.84941 14.1689 7.74491 14.8839 7.19104L16.9492 5.59116V2.90629L21.443 1.46554C22.2974 1.19154 23.2268 1.55579 23.6677 2.33729C23.8277 2.62091 23.9117 2.94091 23.9117 3.26654V6.10029C23.9117 6.47379 24.06 6.83191 24.324 7.09591C24.7225 7.49441 25.3203 7.61691 25.8435 7.40729L31.0563 5.31829H34.5603L36.6535 2.58791L38.4492 4.03041C39.1747 4.61329 39.5968 5.49366 39.5968 6.42441C39.5968 7.31029 40.0874 8.12316 40.8713 8.53591L47.7045 12.1344L56.0395 13.7825L58.9027 15.3514C60.9254 16.4598 62.1829 18.5828 62.1829 20.8893C62.1829 22.3829 61.6535 23.828 60.6888 24.9683L58.1309 27.9912C56.8687 29.4829 56.176 31.3738 56.176 33.328V35.9674C56.176 37.9488 55.4639 39.8643 54.1697 41.3645L51.4825 44.479C50.6175 45.4817 49.5427 46.2819 48.334 46.8232L42.9039 49.2545C41.7592 49.7672 41.0223 50.9044 41.0223 52.1588V55.4662C41.0223 56.2839 40.7075 57.0702 40.1432 57.662L36.3145 61.6774C35.2579 62.7857 33.5444 62.9415 32.3052 62.0422L30.087 60.4324C28.66 59.3969 28.402 57.3724 29.5237 56.012L32.7119 52.145L29.0085 44.7729C27.4585 44.6179 26.2782 43.3137 26.2782 41.7559V36.4453L22.8652 34.534L21.9598 31.8999C21.585 30.8097 20.7117 29.9643 19.6098 29.6253L17.3802 28.9393C16.5175 28.6739 15.7859 28.0947 15.3294 27.3162C14.409 25.7462 12.4633 25.1079 10.7918 25.8275L8.80341 26.6837L2.82916 22.4618C2.19403 22.013 1.81641 21.2838 1.81641 20.506V18.1627C1.81641 16.9119 2.77891 15.8718 4.02591 15.775L8.00728 15.4662Z" stroke="white" stroke-width="3" stroke-miterlimit="10" stroke-linecap="round" stroke-linejoin="round"/>
</g>
<defs>
<clipPath id="clip0_7534_4985">
<rect width="64" height="64" fill="white"/>
</clipPath>
</defs>
</svg>
