<svg width="64" height="64" viewBox="0 0 64 64" fill="none" xmlns="http://www.w3.org/2000/svg">
<path d="M32 51.0111C33.183 51.0111 34.366 50.5909 35.3201 49.7505C41.0058 44.7427 52 33.6214 52 22.5C52 11.4543 43.0457 2.5 32 2.5C20.9543 2.5 12 11.4543 12 22.5C12 33.6214 22.9942 44.7428 28.6799 49.7506C29.634 50.591 30.817 51.0111 32 51.0111Z" stroke="white" stroke-width="3" stroke-miterlimit="10" stroke-linecap="round" stroke-linejoin="round"/>
<path d="M48.6326 48.4004C53.767 49.774 57 51.7736 57 53.9998C57 58.1419 45.8071 61.4998 32 61.4998C18.1929 61.4998 7 58.1419 7 53.9998C7 51.7736 10.233 49.774 15.3674 48.4004" stroke="#F2CC37" stroke-width="3" stroke-miterlimit="10" stroke-linecap="round" stroke-linejoin="round"/>
<path d="M32 30C36.1421 30 39.5 26.6421 39.5 22.5C39.5 18.3579 36.1421 15 32 15C27.8579 15 24.5 18.3579 24.5 22.5C24.5 26.6421 27.8579 30 32 30Z" stroke="white" stroke-width="3" stroke-miterlimit="10" stroke-linecap="round" stroke-linejoin="round"/>
</svg>
