<svg width="64" height="64" viewBox="0 0 64 64" fill="none" xmlns="http://www.w3.org/2000/svg">
<g clip-path="url(#clip0_7534_4906)">
<path d="M29.4078 46.3272V50.6265M29.4078 50.6265L22.0059 52.0228C19.1133 52.5685 17.0312 54.9641 17.0312 57.7466V62.3008H49.2102V57.7466C49.2102 54.9641 47.1281 52.5685 44.2356 52.0228L36.8337 50.6265M29.4078 50.6265C29.4078 52.5607 31.0706 54.1287 33.1211 54.1287C35.1717 54.1287 36.8337 52.5607 36.8337 50.6265M36.8337 50.6265V46.3272M24.3966 32.6197L24.3803 30.6432C24.3803 28.709 26.0428 27.1409 28.0933 27.1409H38.0713C40.1219 27.1409 41.7843 28.709 41.7843 30.6432V32.6197M24.3966 32.6197L24.4572 38.9521C24.4572 43.4654 28.336 47.1241 33.1207 47.1241C37.9055 47.1241 41.7843 43.4654 41.7843 38.9521V32.6197M24.3966 32.6197H41.7843" stroke="#9AA4AC" stroke-width="3" stroke-miterlimit="10" stroke-linecap="round" stroke-linejoin="round"/>
<path d="M53.2279 8.74632L49.3099 10.8168L45.2744 8.74588L46.1582 13.1317L43.029 16.2376L47.4932 16.8777L49.5947 20.8681L51.47 16.878L55.8981 16.2383L52.5927 13.1321L53.2279 8.74632Z" stroke="#F2CC37" stroke-width="2.55" stroke-miterlimit="10" stroke-linecap="round" stroke-linejoin="round"/>
<path d="M62.5 30.5L58.5498 28.4914L57.9164 24L54.8416 27.25L50.5 26.4828L52.5498 30.5L50.5 34.5172L54.8416 33.75L57.9164 37L58.5498 32.5086L62.5 30.5Z" stroke="#F2CC37" stroke-width="2.55" stroke-miterlimit="10" stroke-linecap="round" stroke-linejoin="round"/>
<path d="M11.2721 8.74632L15.1901 10.8168L19.2256 8.74588L18.3418 13.1317L21.471 16.2376L17.0068 16.8777L14.9053 20.8681L13.03 16.878L8.6019 16.2383L11.9073 13.1321L11.2721 8.74632Z" stroke="#F2CC37" stroke-width="2.55" stroke-miterlimit="10" stroke-linecap="round" stroke-linejoin="round"/>
<path d="M2 30.5L5.9502 28.4914L6.5836 24L9.6584 27.25L14 26.4828L11.9502 30.5L14 34.5172L9.6584 33.75L6.5836 37L5.9502 32.5086L2 30.5Z" stroke="#F2CC37" stroke-width="2.55" stroke-miterlimit="10" stroke-linecap="round" stroke-linejoin="round"/>
<path d="M32.5 2L30.4914 5.9502L26 6.5836L29.25 9.6584L28.4828 14L32.5 11.9502L36.5172 14L35.75 9.6584L39 6.5836L34.5086 5.9502L32.5 2Z" stroke="#F2CC37" stroke-width="2.55" stroke-miterlimit="10" stroke-linecap="round" stroke-linejoin="round"/>
</g>
<defs>
<clipPath id="clip0_7534_4906">
<rect width="64" height="64" fill="white"/>
</clipPath>
</defs>
</svg>
