<svg width="529" height="437" viewBox="0 0 529 437" fill="none" xmlns="http://www.w3.org/2000/svg">
<path d="M35.0152 81.0426C20.7495 66.7788 20.7495 43.463 35.0152 28.9249L151.062 -87.1054C165.328 -101.369 188.647 -101.369 202.912 -87.1054L318.959 28.9249C333.225 43.1887 333.225 66.5045 318.959 80.7683L202.912 196.799C188.647 211.062 165.327 211.062 150.787 196.799L35.0152 81.0426Z" fill="#F2CC37"/>
<path d="M-6.96722 104.636H-40.4369L-174.864 238.77V272.51L-40.4369 406.644H-6.96722L127.46 272.51V238.77L-6.96722 104.636Z" fill="white"/>
<path d="M193.578 305.15H160.108L25.6807 439.559V473.024L160.108 607.432H193.578L328.005 473.024V439.559L193.578 305.15Z" fill="white"/>
<path d="M394.121 104.636H360.651L226.498 238.77L226.224 272.51L360.651 406.918L394.396 406.644L528.549 272.51V238.77L394.121 104.636Z" fill="white"/>
</svg>
