<svg width="374" height="375" viewBox="0 0 374 375" fill="none" xmlns="http://www.w3.org/2000/svg">
<g opacity="0.05">
<path d="M142.829 16.7268C133.121 7.0185 133.121 -8.85079 142.829 -18.7458L221.802 -97.7188C231.51 -107.427 247.38 -107.427 257.088 -97.7188L336.061 -18.7458C345.769 -9.03749 345.769 6.8318 336.061 16.5401L257.088 95.5131C247.38 105.221 231.51 105.221 221.615 95.5131L142.829 16.7268Z" fill="#0A437B"/>
<path d="M114.259 32.7852H91.4818L0 124.08V147.044L91.4818 238.339H114.259L205.741 147.044V124.08L114.259 32.7852Z" fill="#0A437B"/>
<path d="M250.735 169.26H227.958L136.477 260.741V283.518L227.958 375H250.735L342.217 283.518V260.741L250.735 169.26Z" fill="#0A437B"/>
<path d="M387.211 32.7852H364.434L273.139 124.08L272.953 147.044L364.434 238.526L387.398 238.339L478.693 147.044V124.08L387.211 32.7852Z" fill="#0A437B"/>
</g>
</svg>
