<svg width="250" height="250" viewBox="0 0 250 250" fill="none" xmlns="http://www.w3.org/2000/svg">
<path d="M76.4845 64.8568C71.5846 59.957 71.5846 51.9476 76.4845 46.9535L116.343 7.09517C121.243 2.19533 129.252 2.19533 134.152 7.09517L174.01 46.9535C178.91 51.8534 178.91 59.8627 174.01 64.7626L134.152 104.621C129.252 109.521 121.243 109.521 116.249 104.621L76.4845 64.8568Z" fill="#F2CC37"/>
<path d="M62.0668 72.9604H50.571L4.39941 119.038V130.628L50.571 176.705H62.0668L108.238 130.628V119.038L62.0668 72.9604Z" fill="#12487C"/>
<path d="M130.948 141.841H119.452L73.2803 188.012V199.508L119.452 245.68H130.948L177.119 199.508V188.012L130.948 141.841Z" fill="#12487C"/>
<path d="M199.829 72.9604H188.333L142.255 119.038L142.161 130.628L188.333 176.799L199.923 176.705L246 130.628V119.038L199.829 72.9604Z" fill="#12487C"/>
</svg>
