<svg width="142" height="140" viewBox="0 0 142 140" fill="none" xmlns="http://www.w3.org/2000/svg">
<g filter="url(#filter0_d_7534_4676)">
<path d="M69.3171 58.6507C69.6471 58.3381 69.9812 58.0398 70.3186 57.7552C70.6137 57.5062 70.9114 57.2676 71.2111 57.0392C72.8337 55.8024 74.5149 54.8608 76.1733 54.1467M69.3171 58.6507C67.7939 60.0938 66.5387 61.8254 65.4717 63.6715M69.3171 58.6507C67.5929 60.2842 66.2121 62.2873 65.059 64.4078M65.4717 63.6715C62.9413 61.6682 59.1695 61.7924 56.7929 64.0438L52.7774 67.848C56.2262 67.2258 59.7745 68.2279 62.2992 70.527M65.4717 63.6715C65.3309 63.9151 65.1934 64.1606 65.059 64.4078M70.4438 78.2428C72.8705 80.6346 73.9283 83.9961 73.2715 87.2634L77.2871 83.4593C79.6637 81.2077 79.7947 77.6345 77.6801 75.2372M88.3366 63.7255L77.6231 53.5758M88.3366 63.7255C88.9873 62.0948 89.3959 60.513 89.6452 59.07M88.3366 63.7255C88.0098 64.5444 87.622 65.3757 87.1626 66.208M77.6231 53.5758C77.1432 53.7477 76.6592 53.9374 76.1733 54.1467M77.6231 53.5758C79.8594 52.775 82.0084 52.3612 83.8624 52.1626M89.6874 52.1612C89.6843 52.1608 89.681 52.1603 89.6778 52.1599M89.6874 52.1612C89.7689 52.1721 89.8112 52.1789 89.8112 52.1789C89.8112 52.1789 90.0374 53.4493 89.9946 55.4537C89.9934 55.5118 89.9919 55.5706 89.9902 55.63C89.9615 56.6269 89.8656 57.7942 89.6452 59.07M89.6874 52.1612L89.6778 52.1599M89.6778 52.1599C89.6426 52.1552 89.6008 52.1499 89.5524 52.144C89.4113 52.1269 89.2149 52.1055 88.9688 52.0845C88.7837 52.0686 88.5706 52.053 88.3318 52.0396C88.209 52.0327 88.0795 52.0264 87.9435 52.0209C86.9091 51.9794 85.5009 51.987 83.8624 52.1626M89.6452 59.07C89.2707 61.2377 88.5368 63.7184 87.1626 66.208M87.1626 66.208C86.1519 68.039 84.7949 69.8747 82.9798 71.5942C79.0386 75.328 73.0587 77.3614 68.2222 79.006L68.2215 79.0062L68.2186 79.0072L68.2164 79.008C67.6806 79.1902 67.1589 79.3676 66.6556 79.542C65.4819 79.9487 64.1747 79.6662 63.291 78.829L61.6804 77.3032C60.7968 76.466 60.4985 75.2275 60.9278 74.1157C61.1126 73.6371 61.3006 73.141 61.4936 72.6315C62.4701 70.0541 63.5764 67.134 65.059 64.4078M76.1733 54.1467C78.9233 52.9625 81.6104 52.4039 83.8624 52.1626M58.8315 81.5282C60.0892 82.7196 60.0892 84.6513 58.8315 85.8427C57.5739 87.0342 52 88 52 88C52 88 53.0196 82.7196 54.2773 81.5282C55.5349 80.3367 57.5739 80.3367 58.8315 81.5282ZM78.2302 66.2012C78.2302 67.8861 76.7884 69.252 75.0099 69.252C73.2313 69.252 71.7895 67.8861 71.7895 66.2012C71.7895 64.5162 73.2313 63.1503 75.0099 63.1503C76.7884 63.1503 78.2302 64.5162 78.2302 66.2012Z" stroke="#F2CC37" stroke-width="2.5" stroke-miterlimit="10" stroke-linecap="round" stroke-linejoin="round"/>
</g>
<defs>
<filter id="filter0_d_7534_4676" x="-0.5" y="-2" width="144" height="144" filterUnits="userSpaceOnUse" color-interpolation-filters="sRGB">
<feFlood flood-opacity="0" result="BackgroundImageFix"/>
<feColorMatrix in="SourceAlpha" type="matrix" values="0 0 0 0 0 0 0 0 0 0 0 0 0 0 0 0 0 0 127 0" result="hardAlpha"/>
<feOffset/>
<feGaussianBlur stdDeviation="25"/>
<feComposite in2="hardAlpha" operator="out"/>
<feColorMatrix type="matrix" values="0 0 0 0 0.0692708 0 0 0 0 0.119146 0 0 0 0 0.247396 0 0 0 0.2 0"/>
<feBlend mode="normal" in2="BackgroundImageFix" result="effect1_dropShadow_7534_4676"/>
<feBlend mode="normal" in="SourceGraphic" in2="effect1_dropShadow_7534_4676" result="shape"/>
</filter>
</defs>
</svg>
