<svg width="42" height="40" viewBox="0 0 42 40" fill="none" xmlns="http://www.w3.org/2000/svg">
<path d="M19.3171 8.65069C19.6471 8.33805 19.9812 8.03976 20.3186 7.75517C20.6137 7.50616 20.9114 7.26764 21.2111 7.03919C22.8337 5.80245 24.5149 4.8608 26.1733 4.14669M19.3171 8.65069C17.7939 10.0938 16.5387 11.8254 15.4717 13.6715M19.3171 8.65069C17.5929 10.2842 16.2121 12.2873 15.059 14.4078M15.4717 13.6715C12.9413 11.6682 9.16952 11.7924 6.79291 14.0438L2.77739 17.848C6.22621 17.2258 9.77446 18.2279 12.2992 20.527M15.4717 13.6715C15.3309 13.9151 15.1934 14.1606 15.059 14.4078M20.4438 28.2428C22.8705 30.6346 23.9283 33.9961 23.2715 37.2634L27.2871 33.4593C29.6637 31.2077 29.7947 27.6345 27.6801 25.2372M38.3366 13.7255L27.6231 3.57584M38.3366 13.7255C38.9873 12.0948 39.3959 10.513 39.6452 9.06996M38.3366 13.7255C38.0098 14.5444 37.622 15.3757 37.1626 16.208M27.6231 3.57584C27.1432 3.74772 26.6592 3.93744 26.1733 4.14669M27.6231 3.57584C29.8594 2.77497 32.0084 2.36125 33.8624 2.16257M39.6874 2.1612C39.6843 2.16077 39.681 2.16034 39.6778 2.15991M39.6874 2.1612C39.7689 2.17209 39.8112 2.17885 39.8112 2.17885C39.8112 2.17885 40.0374 3.44931 39.9946 5.45365C39.9934 5.51181 39.9919 5.57059 39.9902 5.62998C39.9615 6.62686 39.8656 7.79419 39.6452 9.06996M39.6874 2.1612L39.6778 2.15991M39.6778 2.15991C39.6426 2.15525 39.6008 2.14989 39.5524 2.14402C39.4113 2.12692 39.2149 2.10551 38.9688 2.08447C38.7837 2.06865 38.5706 2.05303 38.3318 2.03962C38.209 2.03272 38.0795 2.02641 37.9435 2.02094C36.9091 1.97937 35.5009 1.98699 33.8624 2.16257M39.6452 9.06996C39.2707 11.2377 38.5368 13.7184 37.1626 16.208M37.1626 16.208C36.1519 18.039 34.7949 19.8747 32.9798 21.5942C29.0386 25.328 23.0587 27.3614 18.2222 29.006L18.2215 29.0062L18.2186 29.0072L18.2164 29.008C17.6806 29.1902 17.1589 29.3676 16.6556 29.542C15.4819 29.9487 14.1747 29.6662 13.291 28.829L11.6804 27.3032C10.7968 26.466 10.4985 25.2275 10.9278 24.1157C11.1126 23.6371 11.3006 23.141 11.4936 22.6315C12.4701 20.0541 13.5764 17.134 15.059 14.4078M26.1733 4.14669C28.9233 2.96247 31.6104 2.40389 33.8624 2.16257M8.83155 31.5282C10.0892 32.7196 10.0892 34.6513 8.83155 35.8427C7.57392 37.0342 2 38 2 38C2 38 3.01964 32.7196 4.27726 31.5282C5.53489 30.3367 7.57392 30.3367 8.83155 31.5282ZM28.2302 16.2012C28.2302 17.8861 26.7884 19.252 25.0099 19.252C23.2313 19.252 21.7895 17.8861 21.7895 16.2012C21.7895 14.5162 23.2313 13.1503 25.0099 13.1503C26.7884 13.1503 28.2302 14.5162 28.2302 16.2012Z" stroke="#F2CC37" stroke-width="2.5" stroke-miterlimit="10" stroke-linecap="round" stroke-linejoin="round"/>
</svg>
