<svg width="44" height="43" viewBox="0 0 44 43" fill="none" xmlns="http://www.w3.org/2000/svg">
<path d="M38.8453 10.0339L36.3138 12.5209L31.4019 12.1139L30.9877 7.28819L33.5191 4.80116C30.2858 2.63504 26.3787 1.36788 22.1699 1.36788C11.0303 1.36788 2 10.2399 2 21.1839C2 32.1281 11.0303 41 22.1699 41C33.3094 41 42.3398 32.1281 42.3398 21.1839C42.3398 17.049 41.0501 13.2105 38.8453 10.0339Z" stroke="#F2CC37" stroke-width="2.5" stroke-miterlimit="10" stroke-linecap="round" stroke-linejoin="round"/>
<path d="M22.1698 34.0107C14.9707 34.0107 9.11377 28.2566 9.11377 21.1837C9.11377 14.1109 14.9707 8.35675 22.1698 8.35675C29.369 8.35675 35.2259 14.1109 35.2259 21.1837C35.2259 28.2566 29.369 34.0107 22.1698 34.0107Z" stroke="#F2CC37" stroke-width="2.5" stroke-miterlimit="10" stroke-linecap="round" stroke-linejoin="round"/>
<path d="M22.1702 26.6106C19.1244 26.6106 16.6465 24.1762 16.6465 21.1838C16.6465 18.1914 19.1244 15.757 22.1702 15.757C25.216 15.757 27.6939 18.1914 27.6939 21.1838C27.6939 24.1762 25.216 26.6106 22.1702 26.6106Z" stroke="#F2CC37" stroke-width="2.5" stroke-miterlimit="10" stroke-linecap="round" stroke-linejoin="round"/>
<path d="M22.1699 21.1837L31.402 12.1136" stroke="#F2CC37" stroke-width="2.5" stroke-miterlimit="10" stroke-linecap="round" stroke-linejoin="round"/>
<path d="M41.6401 7.28808L36.3139 12.5208L31.402 12.1137L30.9878 7.28808L36.3139 2.05532L36.7282 6.88107L41.6401 7.28808Z" stroke="#F2CC37" stroke-width="2.5" stroke-miterlimit="10" stroke-linecap="round" stroke-linejoin="round"/>
</svg>
