<svg width="144" height="143" viewBox="0 0 144 143" fill="none" xmlns="http://www.w3.org/2000/svg">
<g filter="url(#filter0_d_7534_4683)">
<path d="M88.8453 60.0339L86.3138 62.5209L81.4019 62.1139L80.9877 57.2882L83.5191 54.8012C80.2858 52.635 76.3787 51.3679 72.1699 51.3679C61.0303 51.3679 52 60.2399 52 71.1839C52 82.1281 61.0303 91 72.1699 91C83.3094 91 92.3398 82.1281 92.3398 71.1839C92.3398 67.049 91.0501 63.2105 88.8453 60.0339Z" stroke="#F2CC37" stroke-width="2.5" stroke-miterlimit="10" stroke-linecap="round" stroke-linejoin="round"/>
<path d="M72.1698 84.0107C64.9707 84.0107 59.1138 78.2566 59.1138 71.1837C59.1138 64.1109 64.9707 58.3568 72.1698 58.3568C79.369 58.3568 85.2259 64.1109 85.2259 71.1837C85.2259 78.2566 79.369 84.0107 72.1698 84.0107Z" stroke="#F2CC37" stroke-width="2.5" stroke-miterlimit="10" stroke-linecap="round" stroke-linejoin="round"/>
<path d="M72.1702 76.6106C69.1244 76.6106 66.6465 74.1762 66.6465 71.1838C66.6465 68.1914 69.1244 65.757 72.1702 65.757C75.216 65.757 77.6939 68.1914 77.6939 71.1838C77.6939 74.1762 75.216 76.6106 72.1702 76.6106Z" stroke="#F2CC37" stroke-width="2.5" stroke-miterlimit="10" stroke-linecap="round" stroke-linejoin="round"/>
<path d="M72.1699 71.1837L81.402 62.1136" stroke="#F2CC37" stroke-width="2.5" stroke-miterlimit="10" stroke-linecap="round" stroke-linejoin="round"/>
<path d="M91.6401 57.2881L86.3139 62.5208L81.402 62.1137L80.9878 57.2881L86.3139 52.0553L86.7282 56.8811L91.6401 57.2881Z" stroke="#F2CC37" stroke-width="2.5" stroke-miterlimit="10" stroke-linecap="round" stroke-linejoin="round"/>
</g>
<defs>
<filter id="filter0_d_7534_4683" x="0.5" y="-1" width="144" height="144" filterUnits="userSpaceOnUse" color-interpolation-filters="sRGB">
<feFlood flood-opacity="0" result="BackgroundImageFix"/>
<feColorMatrix in="SourceAlpha" type="matrix" values="0 0 0 0 0 0 0 0 0 0 0 0 0 0 0 0 0 0 127 0" result="hardAlpha"/>
<feOffset/>
<feGaussianBlur stdDeviation="25"/>
<feComposite in2="hardAlpha" operator="out"/>
<feColorMatrix type="matrix" values="0 0 0 0 0.0692708 0 0 0 0 0.119146 0 0 0 0 0.247396 0 0 0 0.2 0"/>
<feBlend mode="normal" in2="BackgroundImageFix" result="effect1_dropShadow_7534_4683"/>
<feBlend mode="normal" in="SourceGraphic" in2="effect1_dropShadow_7534_4683" result="shape"/>
</filter>
</defs>
</svg>
